PathFileType	4	(X/Y/Z)	./resultDataOpenSim/trcMotMarkerGrf/sub09/qtm-05-04.trc
DataRate	CameraRate	NumFrames	NumMarkers	Units	OrigDataRate	OrigDataStartFrame	OrigNumFrames
250.000000	250.000000	11	24	m	250.000000	80	636
Frame#	Time	L.Toe.Tip			R.Toe.Tip			L.Ankle.Lat			R.Ankle.Lat			L.Ankle.Med			R.Ankle.Med			L.Heel			R.Heel			L.Knee.Lat			R.Knee.Lat			L.Knee.Med			R.Knee.Med			L.Thigh.Upper			R.Thigh.Upper			L.ASIS			R.ASIS			V.Sacral			L.Acromium			R.Acromium			C7			L.Elbow			R.Elbow			L.Wrist.Lat			R.Wrist.Lat
		X1	Y1	Z1	X2	Y2	Z2	X3	Y3	Z3	X4	Y4	Z4	X5	Y5	Z5	X6	Y6	Z6	X7	Y7	Z7	X8	Y8	Z8	X9	Y9	Z9	X10	Y10	Z10	X11	Y11	Z11	X12	Y12	Z12	X13	Y13	Z13	X14	Y14	Z14	X15	Y15	Z15	X16	Y16	Z16	X17	Y17	Z17	X18	Y18	Z18	X19	Y19	Z19	X20	Y20	Z20	X21	Y21	Z21	X22	Y22	Z22	X23	Y23	Z23	X24	Y24	Z24

80	0.316	-1.1555714	0.10622898	-0.067094316	-0.6720403	0.039226227	0.080302255	-1.1971552	0.25629913	-0.091700668	-0.82144558	0.05290538	0.10363135	-1.1701501	0.23629838	0.00033466203	-0.80535773	0.093687065	0.015506995	-1.2665683	0.29175837	-0.04246238	-0.88476557	0.032274522	0.047817763	-0.83920192	0.44975395	-0.11285773	-0.74532371	0.50022437	0.18217043	-0.83100122	0.43456028	0.016778525	-0.75196865	0.49125426	0.054943307	-0.9142575	0.85148572	-0.1344837	-0.90193782	0.87800144	0.2371675	-0.83465785	0.94125632	-0.080613184	-0.82340686	0.96138822	0.15724908	-0.99646556	1.0065282	0.043784993	-0.83252663	1.4080634	-0.11249448	-0.85249884	1.4030491	0.21657459	-0.90955465	1.4585423	0.053527576	-0.92733231	1.0457053	-0.1730518	-0.96522413	1.0516512	0.28307215	-0.71462722	0.88093705	-0.1676412	-0.81321585	0.82255761	0.27885673
81	0.32	-1.1384248	0.10612726	-0.067423991	-0.67216325	0.039248546	0.080467242	-1.1829069	0.25500044	-0.091646083	-0.82171793	0.052974628	0.10377728	-1.1559483	0.23521477	0.00044894093	-0.80546122	0.09376364	0.015654519	-1.2533427	0.28904503	-0.04269679	-0.88479513	0.032346154	0.047799823	-0.8273586	0.45268375	-0.11189674	-0.74411126	0.5000895	0.18235942	-0.82083671	0.43808652	0.018115914	-0.75030555	0.49118086	0.055187419	-0.90820127	0.85338579	-0.13420591	-0.89665334	0.87940322	0.23736383	-0.82953507	0.94319379	-0.080171669	-0.8180583	0.96266279	0.15762481	-0.99128224	1.0082411	0.044101519	-0.82755279	1.4096586	-0.11237703	-0.84657698	1.4047292	0.2167853	-0.90388515	1.4601194	0.053971546	-0.92290537	1.047517	-0.17210048	-0.95863072	1.0528924	0.28380782	-0.71260398	0.88003133	-0.16753514	-0.80437485	0.82521501	0.27871415
82	0.324	-1.1212764	0.10593616	-0.067513219	-0.67227717	0.039271821	0.080633357	-1.168581	0.25346795	-0.091553028	-0.8219824	0.053027437	0.10390781	-1.141549	0.23398744	0.00057112025	-0.80555258	0.093836355	0.015787602	-1.2400126	0.28604432	-0.042921501	-0.88478811	0.032432735	0.047703639	-0.81569154	0.4557083	-0.11082129	-0.74290868	0.49994358	0.18252095	-0.81021612	0.44150946	0.019366236	-0.7487089	0.49108562	0.055430604	-0.90219188	0.8553255	-0.13395166	-0.89146834	0.88076811	0.23753838	-0.82430281	0.94515281	-0.079723568	-0.81269891	0.96392717	0.15800957	-0.98608218	1.0099351	0.044460266	-0.82256649	1.411248	-0.11226132	-0.84066978	1.4064102	0.21698382	-0.89821159	1.4617028	0.054375547	-0.91860674	1.0493526	-0.17125928	-0.95205201	1.0540819	0.28471928	-0.71062407	0.87919458	-0.16748424	-0.79546422	0.8279521	0.27857867
83	0.328	-1.1040901	0.10558111	-0.067261726	-0.6723797	0.039292467	0.080801111	-1.1541657	0.25170717	-0.091416806	-0.82222056	0.053067648	0.10400944	-1.1270039	0.23260884	0.00072002266	-0.8056134	0.093905071	0.01589719	-1.2265516	0.28277517	-0.043127756	-0.88474174	0.032531729	0.04753355	-0.80414075	0.45882027	-0.10973491	-0.74169528	0.49980795	0.18264753	-0.79936586	0.44485975	0.02048679	-0.74733583	0.49095473	0.055620733	-0.89632837	0.85732384	-0.13373263	-0.88654164	0.88205991	0.23766793	-0.81901857	0.94711375	-0.079283571	-0.80732916	0.96518138	0.15839757	-0.98088031	1.0115859	0.044863081	-0.81757624	1.4128227	-0.11215432	-0.83477132	1.4080811	0.21716523	-0.89260965	1.4632954	0.054532451	-0.91437335	1.0511927	-0.1704529	-0.94550977	1.0552249	0.28577214	-0.70867263	0.87842076	-0.16748755	-0.78651622	0.8307713	0.27844364
84	0.332	-1.0866961	0.10503767	-0.066772673	-0.6724687	0.039306796	0.080964035	-1.1396436	0.24972385	-0.091239499	-0.82241889	0.053105159	0.10408417	-1.112375	0.23106234	0.00092300504	-0.80563656	0.093968424	0.01598046	-1.2129441	0.27925487	-0.043292668	-0.88469542	0.032615256	0.047383578	-0.79268221	0.46200684	-0.10867109	-0.74047045	0.49969225	0.18273229	-0.78858728	0.4482088	0.021480546	-0.74627525	0.49077686	0.055731104	-0.8904618	0.85937883	-0.13350547	-0.88182769	0.88327506	0.23775013	-0.81374189	0.94906446	-0.078860169	-0.80198103	0.96641799	0.15878778	-0.9756839	1.013218	0.045287144	-0.81257724	1.414372	-0.11206007	-0.82887938	1.4097377	0.21732852	-0.88714524	1.464908	0.05426576	-0.91003235	1.0530043	-0.16946496	-0.93904439	1.056363	0.28684065	-0.70672808	0.87770583	-0.16754317	-0.77756523	0.83365329	0.27829723
85	0.336	-1.0689851	0.10434793	-0.066255888	-0.67254044	0.03931365	0.081110467	-1.1250006	0.24753433	-0.091024547	-0.82256753	0.053147273	0.10413989	-1.0976994	0.22933395	0.0011971961	-0.80562326	0.094026617	0.01604002	-1.1991878	0.27550324	-0.043395512	-0.88469848	0.032660807	0.047357528	-0.78134547	0.46525304	-0.10761786	-0.73922815	0.49959681	0.18277413	-0.77795427	0.45159932	0.02240333	-0.7453594	0.4905799	0.055771899	-0.88441527	0.86145922	-0.13326326	-0.87720487	0.88442911	0.23778639	-0.80849142	0.9510007	-0.078454095	-0.79671339	0.96761608	0.1591868	-0.97048963	1.0148622	0.045716048	-0.80755413	1.4158884	-0.11197651	-0.82299007	1.4113806	0.21747725	-0.88179485	1.4665337	0.053670822	-0.90545605	1.0547622	-0.16813515	-0.93268723	1.0575354	0.28779783	-0.70477348	0.87704676	-0.1676502	-0.76863019	0.83657498	0.2781294
86	0.34	-1.0510072	0.103558	-0.065833736	-0.67259103	0.039314953	0.081229689	-1.1102294	0.24517668	-0.090773666	-0.82265908	0.0531947	0.10417829	-1.0829732	0.22742395	0.0015276319	-0.80557849	0.094082367	0.016081162	-1.1852881	0.27154077	-0.04343385	-0.88475558	0.032689284	0.047447798	-0.77019697	0.4685406	-0.10656259	-0.73795569	0.4995117	0.18278406	-0.7673445	0.45504272	0.023340659	-0.74434132	0.49040622	0.0557719	-0.87823301	0.8635295	-0.13305618	-0.87256845	0.88553766	0.23776652	-0.80327319	0.95291706	-0.078059543	-0.79145928	0.96875958	0.15962039	-0.9652861	1.0165239	0.046144587	-0.80249678	1.4173677	-0.1119004	-0.81709343	1.4130039	0.21761357	-0.87644278	1.4681372	0.053119881	-0.90071834	1.0564723	-0.16656394	-0.92646199	1.0587571	0.28853591	-0.70280547	0.87644572	-0.16780797	-0.75974863	0.8395185	0.27793802
87	0.344	-1.0328494	0.10269174	-0.065501606	-0.67261942	0.039313172	0.081316441	-1.0953243	0.24268888	-0.090486798	-0.82269256	0.053246982	0.10419577	-1.068166	0.2253508	0.0018986894	-0.80551143	0.094137961	0.016107933	-1.1712424	0.26737967	-0.043415148	-0.88483684	0.032740613	0.047571849	-0.75926988	0.47184775	-0.10550803	-0.73665511	0.49942883	0.18277563	-0.75662547	0.45853588	0.024345964	-0.74322401	0.49026001	0.05575328	-0.87213238	0.86556904	-0.13294238	-0.86785816	0.8866087	0.23767845	-0.79810329	0.95480216	-0.077672144	-0.78604058	0.96985995	0.16011651	-0.96006486	1.0182012	0.046562547	-0.79740429	1.418809	-0.11183362	-0.81118401	1.4145987	0.21773637	-0.870985	1.4696873	0.052913567	-0.89603454	1.0581741	-0.16504689	-0.92036539	1.0600177	0.28896582	-0.70083186	0.87591014	-0.1680163	-0.75096411	0.84247277	0.27772808
88	0.348	-1.014551	0.10176285	-0.065191607	-0.67262748	0.039309591	0.081371145	-1.0802801	0.24007454	-0.090169016	-0.8226737	0.053306605	0.10419004	-1.0532058	0.22314417	0.0023138752	-0.80543493	0.094190482	0.016119798	-1.1570338	0.26301982	-0.043341904	-0.88491677	0.032828226	0.047675793	-0.74847878	0.47515339	-0.10445165	-0.7353364	0.49934843	0.1827469	-0.74582418	0.46206938	0.025391619	-0.74219744	0.49011421	0.055723351	-0.86623128	0.86757676	-0.13294076	-0.8630521	0.88764582	0.23752525	-0.792993	0.95664343	-0.077294211	-0.78034234	0.97095853	0.16066542	-0.95482885	1.0198874	0.046967297	-0.79227625	1.4202136	-0.11177924	-0.80526394	1.4161623	0.21784409	-0.86540747	1.4711832	0.053045583	-0.89157851	1.0599102	-0.16383519	-0.91431016	1.06128	0.28911658	-0.69886095	0.87544166	-0.16827382	-0.74226777	0.84543966	0.27750571
89	0.352	-0.99613739	0.10077772	-0.064837232	-0.67261777	0.039304616	0.081397984	-1.0650922	0.23730621	-0.089829029	-0.82261012	0.053378862	0.10416397	-1.0380083	0.22082786	0.0027656984	-0.80535755	0.09423264	0.016111874	-1.1426422	0.25845939	-0.043217369	-0.88496524	0.032944778	0.047724361	-0.73764841	0.4784464	-0.10337651	-0.73400088	0.49926909	0.1826844	-0.73513027	0.46561624	0.026388391	-0.74131497	0.48995952	0.055682181	-0.86043907	0.86956556	-0.13302611	-0.8581515	0.88865099	0.23731916	-0.78791968	0.95843967	-0.076929596	-0.77444574	0.97208801	0.16121241	-0.94958824	1.021551	0.047371727	-0.78710842	1.4215826	-0.11173635	-0.79933581	1.417693	0.21793561	-0.85976519	1.472644	0.053343291	-0.88736673	1.0616834	-0.16295665	-0.90814315	1.0624962	0.28919417	-0.69689861	0.87502749	-0.16858008	-0.73360417	0.84842952	0.27727378
90	0.356	-0.9776385	0.099735692	-0.064419354	-0.67259262	0.039297291	0.081403286	-1.0497592	0.23436405	-0.089465356	-0.82250849	0.053469136	0.10412293	-1.0225619	0.21840786	0.003231251	-0.80527212	0.094262126	0.016079035	-1.1280504	0.25371388	-0.043062433	-0.88493015	0.033092607	0.047667364	-0.72671321	0.48172937	-0.10227617	-0.73264954	0.49918824	0.18258457	-0.7247599	0.46913738	0.027250404	-0.74044275	0.48981683	0.055615444	-0.85462198	0.8715445	-0.13316134	-0.85317502	0.88962668	0.2370642	-0.78279743	0.9602046	-0.076578666	-0.76857565	0.97322773	0.16170346	-0.94435068	1.0231552	0.047782056	-0.78189706	1.4229136	-0.11170236	-0.7933982	1.4191894	0.21800959	-0.85413437	1.4740892	0.05367688	-0.88328617	1.0634569	-0.16223473	-0.90180264	1.0636508	0.28943265	-0.69495133	0.87464568	-0.16894165	-0.72494287	0.85144378	0.27703221
